<?xml version="1.0" encoding="utf-8"?>
<!-- Generator: Adobe Illustrator 19.2.1, SVG Export Plug-In . SVG Version: 6.00 Build 0)  -->
<svg version="1.1" id="layer" xmlns="http://www.w3.org/2000/svg" xmlns:xlink="http://www.w3.org/1999/xlink" x="0px" y="0px"
	 viewBox="0 0 652 652" style="enable-background:new 0 0 652 652;" xml:space="preserve">
<style type="text/css">
	.st0{fill-rule:evenodd;clip-rule:evenodd;fill:#221E1F;}
	.st1{fill-rule:evenodd;clip-rule:evenodd;fill:#00A550;}
	.st2{fill-rule:evenodd;clip-rule:evenodd;fill:#1CAA5B;}
	.st3{fill:none;stroke:#221E1F;stroke-width:1.7656;stroke-miterlimit:2.6131;}
	.st4{fill:#221E1F;}
</style>
<path class="st0" d="M174.9,298.1c1.6,6.1,2.5,12.5,2.5,19.1c0,40.8-33.1,73.9-73.9,73.9c-10.2,0-20-2.1-28.9-5.9
	c6.6,2.2,13.5,3.3,20.8,3.3c36.7,0,66.4-29.7,66.4-66.4c0-4.5-0.5-9-1.3-13.3C166.2,304.8,171,301.1,174.9,298.1 M103.5,243.3
	c32.6,0,60.4,21.2,70.1,50.5l-0.5-0.8c-4.8,2.9-9.6,5.7-14.5,8.6c-8.6-26.6-33.6-45.9-63.2-45.9c-33.4,0-61,24.7-65.7,56.8
	C32.2,273.9,64.3,243.3,103.5,243.3z"/>
<path class="st1" d="M48,364.5c4.1,4.2,8.8,7.9,14.3,10.8c28.2,15.2,63.4,4.6,78.6-23.6c3.8-7.1,6-14.6,6.7-22.1
	c-0.9,5.3-2.7,10.6-5.4,15.6c-13.6,25.3-45.2,34.8-70.6,21.2c-2.6-1.4-5-3-7.2-4.7c-4.7,1.3-9.2,2.2-13.4,2.6
	C49.9,364.4,48.9,364.4,48,364.5 M39.6,353.4c1.2,2.1,2.5,4.1,4,6c2.1,0.1,4.4,0.1,6.7-0.2c2.9-0.3,6-0.8,9.3-1.6
	c-1.6-1.5-3-3.1-4.3-4.8C49.7,353.7,44.4,353.9,39.6,353.4z M38.7,296.7c-8.9,16.5-9,35.4-1.8,51.2c4.5,0.9,9.6,0.9,15.2,0.3
	c-9.6-15.4-11-35.3-1.8-52.4c12.4-23.1,39.8-33,63.7-24.3C86.4,258.8,53.3,269.6,38.7,296.7z"/>
<path class="st0" d="M81,355.9c18.2,10.4,41.8,7,56.3-9.3c4.2-4.7,7.2-10,9.1-15.6c-1.7,3.9-4,7.6-7,10.9
	c-12.4,14-32.3,17.4-48.4,9.5C87.7,353,84.3,354.5,81,355.9 M71.8,349c0.4,0.4,0.9,0.9,1.4,1.3c0.9,0.8,1.8,1.5,2.7,2.2
	c3.3-1.3,6.6-2.7,9.9-4.2c-1.2-0.8-2.4-1.8-3.5-2.8C78.7,346.9,75.2,348,71.8,349z M69.5,286.2c-15,16.8-15.2,41.7-1.4,58.7
	c3.3-0.9,6.7-2,10.2-3.3c-13.4-15.3-13.6-38.5,0.2-54c13.6-15.3,36.3-17.9,52.9-6.9C112.7,266,85.5,268.2,69.5,286.2z"/>
<path class="st2" d="M149.2,317c-1.3,18.9-17,33.8-36.2,33.8c-5,0-9.8-1-14.2-2.9c3.2,1.1,6.7,1.6,10.2,1.6
	c16.2,0,29.6-11.7,32.2-27.1C143.9,320.6,146.6,318.8,149.2,317 M112.9,278.1c17.7,0,32.4,12.6,35.6,29.3c-2.5,1.4-4.9,2.8-7.4,4.2
	c-2.5-15.5-16-27.4-32.2-27.4c-16.4,0-30,12.1-32.3,27.9C77.9,293.2,93.6,278.1,112.9,278.1z"/>
<path class="st2" d="M20.5,341.3c22.3,28,91.1-8.3,153.9-46C143.1,320,31.1,399.2,20.5,341.3"/>
<path class="st1" d="M203.7,303.7c0.7-3.6,1.7-6.8,3.1-9.7c2.2-4.6,5.1-8.7,8.8-12.4c3.7-3.6,7.8-6.4,12.2-8.1
	c5.9-2.4,12.7-3.6,20.4-3.6c13.9,0,25,4.1,33.4,12.4c5.7,5.6,9.5,12.8,11.3,21.4h-20c-1.2-4.3-3-7.8-5.6-10.6
	c-4.7-5.1-11.1-7.6-18.9-7.6c-7.9,0-14.2,2.6-19,7.7c-2.6,2.8-4.4,6.2-5.6,10.5H203.7z"/>
<rect x="302.5" y="271.6" class="st1" width="20.9" height="32.6"/>
<path class="st0" d="M302.5,308.5h17.9v-0.1c21.3,0.4,38-6.3,38-35.3H376c0,18.3-3.8,35.6-16.9,45.6c13.2,9.9,16.9,26.8,16.9,44.7
	h-17.8c0-27-15.1-34.3-34.9-34.6v34.5h-20.9V308.5z"/>
<path class="st0" d="M440.3,327.2l-13-33.6l-12.7,33.6H440.3z M475.4,363h-20.7l-8.2-20.5h-37.7l-7.8,20.5h-20.2l36.8-90.4h20.2
	L475.4,363z"/>
<path class="st0" d="M585.4,327.2l-13-33.6l-12.7,33.6H585.4z M620.5,363h-20.7l-8.2-20.5h-37.7L546,363h-20.2l36.8-90.4h20.2
	L620.5,363z"/>
<path class="st0" d="M202.5,318.3c0-3.6,0.2-6.9,0.6-10.1h19.8c-0.5,2.9-0.8,6-0.8,9.4c0,10.2,2.5,18,7.4,23.3
	c4.9,5.3,11.2,7.9,18.8,7.9c7.6,0,13.8-2.6,18.7-7.9c4.9-5.2,7.3-13.1,7.3-23.6c0-3.3-0.2-6.4-0.7-9.2h19.8c0.4,3,0.7,6.2,0.7,9.6
	c0,14.6-4.2,26-12.4,34.3c-8.3,8.2-19.4,12.4-33.2,12.4c-14,0-25.2-4.1-33.5-12.3C206.6,344,202.5,332.7,202.5,318.3"/>
<polygon class="st1" points="500.5,305.8 520.6,272.6 542.6,272.6 510.3,321.4 "/>
<polygon class="st0" points="487.3,363 487.3,324.9 452.8,272.6 473.5,272.6 506.4,325.1 506.4,363 "/>
<circle class="st3" cx="609.8" cy="278.9" r="7.5"/>
<path class="st4" d="M607.8,278.2h1.3c0.8,0,1.3,0,1.5-0.1c0.2-0.1,0.4-0.2,0.5-0.4c0.1-0.2,0.2-0.4,0.2-0.6c0-0.3-0.1-0.5-0.2-0.7
	c-0.1-0.2-0.4-0.3-0.6-0.3c-0.1,0-0.6,0-1.2,0h-1.3V278.2z M606,283.1v-8.4h3.6c0.9,0,1.6,0.1,2,0.2c0.4,0.2,0.7,0.4,1,0.8
	c0.2,0.4,0.4,0.8,0.4,1.3c0,0.6-0.2,1.2-0.6,1.6c-0.4,0.4-0.9,0.7-1.7,0.8c0.4,0.2,0.7,0.4,0.9,0.7c0.2,0.3,0.6,0.7,1,1.4l1,1.6h-2
	l-1.2-1.8c-0.4-0.7-0.7-1.1-0.9-1.2c-0.2-0.2-0.3-0.3-0.5-0.3c-0.2-0.1-0.5-0.1-0.9-0.1h-0.3v3.5H606z"/>
<path class="st4" d="M594.8,402.3v-26.9h5.3l6.4,19c0.6,1.8,1,3.1,1.3,4c0.3-1,0.8-2.4,1.4-4.3l6.5-18.7h4.8v26.9H617v-22.5
	l-7.8,22.5H606l-7.8-22.9v22.9H594.8z M557.4,389.3c0,3.2,0.9,5.8,2.6,7.6c1.7,1.9,3.9,2.8,6.5,2.8c2.7,0,4.9-0.9,6.6-2.8
	c1.7-1.9,2.6-4.5,2.6-8c0-2.2-0.4-4.1-1.1-5.7c-0.7-1.6-1.8-2.9-3.2-3.8c-1.4-0.9-3-1.3-4.8-1.3c-2.5,0-4.7,0.9-6.5,2.6
	C558.3,382.4,557.4,385.3,557.4,389.3z M553.7,389.3c0-4.5,1.2-7.9,3.6-10.5c2.4-2.5,5.5-3.8,9.3-3.8c2.5,0,4.7,0.6,6.7,1.8
	c2,1.2,3.5,2.8,4.6,5c1,2.1,1.6,4.5,1.6,7.2c0,2.7-0.6,5.2-1.7,7.3c-1.1,2.2-2.7,3.8-4.7,4.9c-2,1.1-4.2,1.7-6.5,1.7
	c-2.5,0-4.8-0.6-6.8-1.8c-2-1.2-3.5-2.9-4.5-5C554.2,393.8,553.7,391.6,553.7,389.3z M535.9,392.9l3.6,0.9c-0.7,2.9-2.1,5.1-4,6.7
	c-1.9,1.5-4.3,2.3-7.1,2.3c-2.9,0-5.2-0.6-7.1-1.8c-1.8-1.2-3.2-2.9-4.1-5.1c-0.9-2.2-1.4-4.6-1.4-7.2c0-2.8,0.5-5.2,1.6-7.3
	c1.1-2.1,2.6-3.7,4.6-4.7c2-1.1,4.1-1.6,6.5-1.6c2.7,0,4.9,0.7,6.8,2.1c1.8,1.4,3.1,3.3,3.8,5.8l-3.5,0.8c-0.6-2-1.5-3.4-2.7-4.3
	c-1.2-0.9-2.7-1.3-4.5-1.3c-2.1,0-3.8,0.5-5.2,1.5c-1.4,1-2.4,2.3-2.9,4c-0.6,1.7-0.8,3.4-0.8,5.2c0,2.3,0.3,4.3,1,6
	c0.7,1.7,1.7,3,3.1,3.8c1.4,0.8,2.9,1.3,4.5,1.3c2,0,3.7-0.6,5-1.7C534.4,396.9,535.4,395.2,535.9,392.9z M479.2,389.3
	c0,3.2,0.9,5.8,2.6,7.6c1.7,1.9,3.9,2.8,6.6,2.8c2.7,0,4.9-0.9,6.6-2.8c1.7-1.9,2.6-4.5,2.6-8c0-2.2-0.4-4.1-1.1-5.7
	c-0.7-1.6-1.8-2.9-3.2-3.8c-1.4-0.9-3-1.3-4.8-1.3c-2.5,0-4.7,0.9-6.5,2.6C480.1,382.4,479.2,385.3,479.2,389.3z M475.5,389.3
	c0-4.5,1.2-7.9,3.6-10.5c2.4-2.5,5.5-3.8,9.3-3.8c2.5,0,4.7,0.6,6.7,1.8c2,1.2,3.5,2.8,4.6,5c1,2.1,1.6,4.5,1.6,7.2
	c0,2.7-0.6,5.2-1.7,7.3c-1.1,2.2-2.7,3.8-4.7,4.9c-2,1.1-4.2,1.7-6.5,1.7c-2.5,0-4.8-0.6-6.8-1.8c-2-1.2-3.5-2.9-4.5-5
	C476,393.8,475.5,391.6,475.5,389.3z M442.9,402.3v-26.9H461v3.2h-14.6v8.4h12.6v3.2h-12.6v12.2H442.9z M404.6,402.3v-26.9h3.7
	l14.1,21.1v-21.1h3.4v26.9h-3.7l-14.1-21.1v21.1H404.6z M383.9,402.3v-26.9h3.6v26.9H383.9z"/>
</svg>
